<?xml version="1.0" standalone="no"?>
<!DOCTYPE svg PUBLIC "-//W3C//DTD SVG 20010904//EN"
 "http://www.w3.org/TR/2001/REC-SVG-20010904/DTD/svg10.dtd">
<svg version="1.0" xmlns="http://www.w3.org/2000/svg"
 width="90.000000pt" height="90.000000pt" viewBox="0 0 90.000000 90.000000"
 preserveAspectRatio="xMidYMid meet">
<metadata>
Created by potrace 1.16, written by Peter Selinger 2001-2019
</metadata>
<g transform="translate(0.000000,90.000000) scale(0.100000,-0.100000)"
fill="#000000" stroke="none">
<path d="M44 888 c-12 -5 -27 -21 -33 -34 -15 -34 -15 -773 0 -807 6 -14 22
-30 36 -36 33 -15 773 -15 806 0 14 6 30 22 36 36 15 33 15 773 0 806 -6 14
-22 30 -36 36 -32 15 -779 14 -809 -1z m440 -255 c13 -27 72 -130 130 -231 58
-101 106 -185 106 -188 0 -2 -122 -4 -271 -4 -161 0 -269 4 -267 9 9 27 264
461 270 461 4 0 19 -21 32 -47z"/>
<path d="M363 426 c-46 -79 -83 -147 -83 -150 0 -3 77 -6 171 -6 102 0 169 4
167 9 -7 21 -163 291 -168 291 -3 0 -42 -65 -87 -144z"/>
</g>
</svg>
