<?xml version="1.0" encoding="UTF-8" standalone="no"?> <svg xmlns="http://www.w3.org/2000/svg" viewBox="0 0 37.33 64"><defs><style>.cls-1{fill:#35353d;}</style></defs><title>Asset 1</title><g id="Layer_2" data-name="Layer 2"><g id="Layer_1-2" data-name="Layer 1"><path class="cls-1" d="M32,0H5.33A5.33,5.33,0,0,0,0,5.33V58.67A5.33,5.33,0,0,0,5.33,64H32a5.33,5.33,0,0,0,5.33-5.33V5.33A5.33,5.33,0,0,0,32,0ZM5.33,58.67V5.33H32V58.67Z"/><path class="cls-1" d="M25.36,8H12a1.34,1.34,0,0,0,0,2.67H25.36a1.34,1.34,0,0,0,0-2.67Z"/><circle class="cls-1" cx="18.64" cy="53.33" r="2.67"/></g></g></svg>